# xmcd
#
# Track frame offsets:
#        150
#        18254
#        38772
#        54028
#        74005
#        91732
#        112577
#        138082
#        156019
#        177210
#        202003
#
# Disc length: 3121 seconds
#
# Revision: 15
# Processed by: cddbd v1.5.2PL0 Copyright (c) Steve Scherf et al.
# Submitted via: ExactAudioCopy v0.99pb5
#
DISCID=7f0c2f0b
DTITLE=Iced earth / Tribute to the gods
DYEAR=2002
DGENRE=Metal
TTITLE0=Creatures of the night (Kiss)
TTITLE1=The number of the beast (Iron maiden)
TTITLE2=Highway to hell (AC/DC)
TTITLE3=Burnin' for you (Blue oyster cult)
TTITLE4=God of thunder (Kiss)
TTITLE5=Screaming for vengeance (Judas priest)
TTITLE6=Dead babies (Alice Cooper)
TTITLE7=Cities on flame (Blue oyster cult)
TTITLE8=It's a long way to the top (If you wanna rock n' roll) (AC/DC)
TTITLE9=Black Sabbath (Black Sabbath)
TTITLE10=Hallowed be thy name (Iron maiden)
EXTD=www.icedearth.com
EXTT0=
EXTT1=
EXTT2=
EXTT3=
EXTT4=
EXTT5=
EXTT6=
EXTT7=
EXTT8=
EXTT9=
EXTT10=
PLAYORDER=
.
